<?xml version="1.0" standalone="no"?>
<!DOCTYPE svg PUBLIC "-//W3C//DTD SVG 20010904//EN"
 "http://www.w3.org/TR/2001/REC-SVG-20010904/DTD/svg10.dtd">
<svg version="1.0" xmlns="http://www.w3.org/2000/svg"
 width="401.000000pt" height="550.000000pt" viewBox="0 0 401.000000 550.000000"
 preserveAspectRatio="xMidYMid meet">

<g transform="translate(0.000000,550.000000) scale(0.100000,-0.100000)"
fill="#FFF" stroke="none">
<path d="M2570 5142 c8 -3 -28 -11 -80 -18 -146 -19 -259 -41 -320 -64 -30
-12 -68 -26 -85 -32 -16 -6 -52 -24 -80 -40 -126 -71 -367 -181 -445 -203
-102 -29 -321 -27 -419 4 -114 36 -175 100 -190 200 l-7 46 -43 -45 c-47 -49
-74 -99 -62 -115 4 -5 13 -36 20 -68 15 -71 43 -105 120 -146 118 -62 315 -58
529 11 71 23 96 19 30 -4 -144 -51 -323 -82 -417 -73 -42 4 -87 9 -101 10 -57
4 -129 64 -169 140 -12 22 -21 49 -21 60 0 15 -7 11 -32 -20 -18 -22 -47 -53
-64 -70 -45 -43 -62 -83 -70 -161 -5 -45 -10 -62 -14 -49 -5 15 -10 5 -20 -38
-6 -32 -9 -61 -6 -64 3 -4 6 2 7 13 0 18 1 18 9 -1 5 -11 9 -27 9 -35 1 -13 0
-13 -9 0 -8 13 -10 12 -10 -4 0 -10 15 -32 33 -50 18 -17 45 -48 61 -69 36
-49 143 -120 231 -152 51 -19 98 -28 170 -32 146 -8 278 26 452 114 111 56
289 133 309 133 4 0 -47 -28 -112 -61 -455 -236 -504 -253 -739 -253 -149 -1
-150 -1 -220 32 -38 18 -89 52 -113 75 -45 44 -107 140 -118 182 -3 14 -11 28
-17 32 -19 12 0 -120 26 -177 39 -85 82 -137 150 -180 69 -45 73 -53 6 -15
-49 27 -93 65 -127 110 l-23 30 16 -39 c17 -43 33 -66 53 -79 7 -5 17 -20 23
-34 6 -17 14 -23 25 -19 12 5 15 2 10 -10 -3 -8 -6 -45 -6 -81 0 -55 -2 -64
-14 -54 -8 7 1 -17 20 -52 46 -87 169 -205 244 -234 30 -11 59 -18 63 -14 4 5
3 27 -2 51 -7 32 -7 40 2 31 6 -6 11 -38 12 -71 l0 -60 44 0 c40 0 43 2 38 23
-3 12 -11 42 -17 67 -10 44 -22 76 -55 153 -9 22 -11 36 -5 32 13 -8 5 44 -9
58 -16 16 21 44 79 58 48 11 183 73 277 128 39 22 97 66 121 91 26 27 176 128
270 180 45 26 79 50 75 55 -5 4 -2 5 5 1 20 -12 52 3 45 21 -5 13 -1 15 20 11
15 -3 24 -1 21 4 -3 5 6 6 20 2 14 -3 47 1 73 10 51 16 80 18 271 19 110 0
126 -2 152 -22 16 -11 38 -21 49 -21 24 0 67 -50 76 -89 5 -22 15 -33 40 -41
18 -6 39 -18 45 -26 7 -7 27 -14 46 -14 26 0 39 7 58 33 59 77 55 203 -10 312
-34 57 -34 59 -9 35 33 -29 80 -128 89 -185 9 -52 -8 -125 -39 -175 -14 -22
-25 -46 -25 -54 0 -15 79 -66 103 -66 8 0 24 -9 37 -20 13 -11 31 -20 40 -20
9 0 25 -9 35 -20 10 -11 27 -20 38 -20 11 0 36 -18 55 -41 30 -35 39 -40 63
-35 37 7 42 -4 24 -48 -32 -75 -14 -75 62 2 31 31 48 44 36 27 -11 -16 -30
-39 -42 -49 -23 -21 -41 -74 -41 -124 l0 -33 55 48 c30 26 55 55 55 64 0 8 12
26 26 40 14 13 23 31 21 40 -2 9 6 34 19 55 35 57 30 58 -22 6 l-47 -47 35 45
c39 50 62 90 55 96 -2 2 -21 -21 -42 -51 -42 -62 -61 -69 -21 -8 31 46 56 116
56 153 0 15 6 43 14 61 7 19 21 77 31 129 14 77 15 110 8 175 -10 77 -10 78
-12 25 -2 -66 -16 -52 -26 25 -12 88 -53 201 -102 278 -14 22 -15 29 -5 36 17
10 -113 132 -137 129 -9 -2 -15 2 -14 7 1 6 -13 12 -30 13 l-32 3 40 -41 c52
-54 38 -51 -38 8 -62 49 -168 104 -286 149 -35 13 -75 30 -90 37 -14 7 -55 16
-91 19 -36 3 -58 3 -50 -1z m108 -269 c-10 -2 -28 -2 -40 0 -13 2 -5 4 17 4
22 1 32 -1 23 -4z m77 -13 c7 -12 -12 -12 -40 0 -18 8 -17 9 7 9 15 1 30 -3
33 -9z m-1640 -84 c28 -9 82 -20 120 -25 l70 -8 -65 -2 c-90 -1 -177 26 -227
72 -38 34 -26 40 15 8 20 -16 60 -37 87 -45z m1778 45 c63 -29 207 -151 207
-175 0 -7 -33 19 -72 58 -65 64 -112 94 -208 134 -18 8 -20 11 -7 11 9 1 45
-12 80 -28z m240 -105 c86 -90 134 -215 144 -371 4 -68 0 -92 -22 -160 -26
-78 -71 -161 -101 -186 -9 -7 0 16 19 52 40 74 77 210 77 283 -1 84 -25 174
-74 272 -37 75 -59 104 -114 154 -64 59 -65 60 -20 32 26 -16 67 -50 91 -76z
m-518 84 c13 -5 14 -9 5 -9 -8 0 -24 4 -35 9 -13 5 -14 9 -5 9 8 0 24 -4 35
-9z m139 -51 c45 -22 98 -53 117 -70 31 -27 28 -26 -26 8 -33 20 -94 52 -135
70 -41 18 -67 33 -57 33 9 0 55 -18 101 -41z m-1678 -26 c-5 -5 -74 26 -81 37
-4 6 14 0 39 -12 25 -12 44 -23 42 -25z m1284 40 c0 -5 -53 -6 -117 -5 -123 4
-291 -22 -337 -51 -12 -7 -57 -26 -101 -41 -44 -15 -111 -41 -148 -58 -38 -16
-71 -27 -74 -25 -6 7 63 37 196 86 58 22 120 46 136 55 56 28 168 44 308 45
75 1 137 -2 137 -6z m228 -39 c46 -14 100 -34 120 -45 44 -24 27 -20 -93 20
-49 17 -119 37 -155 45 l-65 15 55 -6 c30 -3 93 -16 138 -29z m-1781 4 c-3 -8
-6 -5 -6 6 -1 11 2 17 5 13 3 -3 4 -12 1 -19z m238 -66 c-5 -5 -63 27 -71 39
-3 6 12 0 34 -12 22 -13 39 -25 37 -27z m130 38 c4 -7 -3 -8 -22 -4 -38 9 -42
14 -10 14 14 0 29 -5 32 -10z m-288 -138 c30 -37 32 -42 9 -22 -31 28 -71 92
-80 130 -3 14 3 6 14 -18 11 -24 37 -64 57 -90z m563 107 c-52 -21 -164 -39
-233 -38 l-72 2 95 8 c52 5 118 15 145 22 61 18 103 21 65 6z m-702 -64 c-3
-3 -9 2 -12 12 -6 14 -5 15 5 6 7 -7 10 -15 7 -18z m2128 -22 c25 -20 54 -50
66 -67 15 -22 8 -17 -23 15 -24 25 -57 55 -74 67 -16 12 -26 22 -22 22 5 0 29
-16 53 -37z m254 25 c0 -7 15 -32 34 -56 49 -61 70 -147 64 -264 -3 -79 -9
-103 -37 -160 -33 -69 -59 -92 -46 -40 4 15 8 38 9 52 1 14 9 36 18 50 24 36
33 143 18 230 -12 69 -49 162 -70 175 -13 8 -13 25 0 25 6 0 10 -6 10 -12z
m-2390 -54 c16 -47 76 -106 142 -140 48 -25 63 -28 153 -27 160 1 287 32 457
112 116 55 135 52 26 -4 -234 -121 -516 -185 -620 -142 -100 42 -156 100 -183
191 -12 39 -12 46 0 46 7 0 19 -16 25 -36z m2291 -16 c49 -61 92 -150 86 -176
-3 -12 -6 -8 -12 13 -14 53 -55 126 -97 171 -22 24 -36 44 -30 44 7 0 30 -24
53 -52z m-2189 -57 c-6 -10 -58 38 -76 70 -18 31 -15 29 30 -16 27 -27 48 -52
46 -54z m331 92 c-18 -2 -48 -2 -65 0 -18 2 -4 4 32 4 36 0 50 -2 33 -4z m397
2 c0 -5 -68 -35 -79 -35 -8 1 61 39 72 40 4 0 7 -2 7 -5z m-842 -135 c26 -39
56 -66 102 -94 64 -39 67 -40 176 -44 62 -2 133 0 159 6 69 15 41 -4 -35 -24
-69 -17 -173 -15 -242 5 -20 7 -64 30 -97 52 -71 48 -106 101 -114 174 -5 45
-5 47 4 15 6 -19 27 -60 47 -90z m1799 91 c63 -29 131 -96 139 -138 9 -49 -1
-50 -27 -3 -16 27 -41 51 -76 71 -51 29 -58 31 -146 27 -102 -3 -136 -18 -227
-97 -35 -31 -51 -38 -72 -34 -24 5 -25 7 -16 34 14 41 97 112 160 137 72 28
205 30 265 3z m-1052 -1 c-3 -5 -14 -10 -23 -9 -14 0 -13 2 3 9 27 11 27 11
20 0z m-70 -29 c-11 -10 -112 -42 -129 -40 -11 1 109 45 129 48 6 1 6 -2 0 -8z
m-725 -66 c0 -5 -5 -3 -10 5 -5 8 -10 20 -10 25 0 6 5 3 10 -5 5 -8 10 -19 10
-25z m555 14 c-16 -6 -79 -12 -140 -14 l-110 -4 95 9 c52 5 102 11 110 14 8 2
29 4 45 4 l30 0 -30 -9z m1783 -57 c21 -50 35 -102 28 -102 -2 0 -12 24 -21
53 -10 28 -26 67 -37 86 -13 23 -14 30 -5 23 8 -7 24 -34 35 -60z m-2245 -75
c33 -32 84 -72 114 -89 51 -29 62 -38 45 -38 -10 0 -119 72 -154 102 -38 32
-98 108 -97 121 0 7 7 1 16 -13 9 -14 44 -51 76 -83z m1474 47 c-3 -3 -12 -4
-19 -1 -8 3 -5 6 6 6 11 1 17 -2 13 -5z m-277 -24 c-8 -5 -22 -9 -30 -9 -10 0
-8 3 5 9 27 12 43 12 25 0z m1207 -47 c-3 -10 -5 -2 -5 17 0 19 2 27 5 18 2
-10 2 -26 0 -35z m-50 -5 c-3 -7 -5 -2 -5 12 0 14 2 19 5 13 2 -7 2 -19 0 -25z
m-1297 -33 c-14 -8 -29 -14 -35 -14 -5 0 1 6 15 14 14 8 30 14 35 14 6 0 -1
-6 -15 -14z m1289 -82 c-13 -46 -86 -169 -95 -160 -3 3 8 24 25 47 35 49 70
137 72 183 l2 32 4 -29 c3 -16 -1 -49 -8 -73z m-1339 63 c0 -2 -19 -15 -42
-28 -24 -13 -55 -32 -70 -42 -16 -10 -28 -15 -28 -12 0 7 121 86 133 86 4 0 7
-2 7 -4z m1261 -54 c-14 -52 -55 -124 -83 -148 l-23 -19 21 25 c27 32 58 93
74 148 16 53 25 48 11 -6z m-1986 -22 c13 -6 15 -9 5 -9 -8 0 -22 4 -30 9 -18
12 -2 12 25 0z m88 -17 c-7 -2 -21 -2 -30 0 -10 3 -4 5 12 5 17 0 24 -2 18 -5z
m432 -33 c-3 -5 -12 -10 -18 -10 -7 0 -6 4 3 10 19 12 23 12 15 0z m1555 -10
c-6 -11 -13 -20 -16 -20 -2 0 0 9 6 20 6 11 13 20 16 20 2 0 0 -9 -6 -20z
m165 -83 c-18 -44 -84 -141 -92 -133 -2 2 12 25 31 50 20 26 43 69 53 97 10
27 19 45 21 39 2 -6 -4 -30 -13 -53z m-1892 -4 c-7 -2 -19 -2 -25 0 -7 3 -2 5
12 5 14 0 19 -2 13 -5z m1657 -9 c-8 -8 -23 -20 -34 -25 -13 -7 -9 -1 9 15 34
29 43 33 25 10z m-1822 -6 c-2 -6 -13 -13 -24 -14 -10 -2 -48 -10 -83 -19 -73
-18 -255 -25 -270 -10 -7 7 26 11 97 12 82 2 222 23 280 42 2 1 2 -4 0 -11z
m37 2 c3 -5 1 -10 -4 -10 -6 0 -11 5 -11 10 0 6 2 10 4 10 3 0 8 -4 11 -10z
m1946 -18 c-5 -9 -19 -26 -32 -37 -17 -15 -15 -10 7 17 32 41 40 48 25 20z
m-2394 -8 c0 -10 -5 -10 -21 -2 -29 15 -30 16 -3 16 13 0 24 -6 24 -14z m383
-74 c-144 -67 -235 -80 -350 -49 -44 12 -83 26 -87 32 -4 7 2 8 18 3 94 -28
264 -14 399 32 129 45 137 38 20 -18z m-341 14 c10 -9 -35 -3 -49 6 -11 8 -7
9 15 4 17 -4 32 -8 34 -10z m144 -11 c-7 -2 -21 -2 -30 0 -10 3 -4 5 12 5 17
0 24 -2 18 -5z m-212 -177 c7 -17 21 -43 31 -58 17 -25 17 -27 2 -21 -14 5
-15 3 -5 -14 10 -21 43 -51 91 -86 25 -17 25 -17 -6 -3 -18 9 -50 36 -72 61
-43 49 -101 177 -83 183 6 2 12 18 12 35 1 25 3 21 10 -17 4 -27 13 -63 20
-80z m210 -58 c28 -55 23 -60 -7 -8 -15 25 -47 68 -73 95 l-46 50 53 -50 c30
-27 62 -67 73 -87z m-86 61 c11 -12 -1 -5 -27 16 -27 22 -48 41 -48 43 0 7 56
-36 75 -59z m10 -117 c17 -15 24 -23 15 -18 -27 18 -81 71 -92 91 -6 11 3 5
18 -13 16 -19 43 -46 59 -60z"/>
<path d="M3422 4560 c0 -14 2 -19 5 -12 2 6 2 18 0 25 -3 6 -5 1 -5 -13z"/>
<path d="M577 4398 c-13 -40 -13 -49 -1 -59 8 -6 14 -17 14 -23 0 -6 13 -39
30 -74 84 -177 265 -255 522 -223 57 7 108 17 113 22 7 7 -6 7 -35 2 -63 -11
-189 -8 -252 7 -97 23 -172 64 -237 130 -58 59 -120 164 -122 206 0 11 -4 28
-8 39 -6 16 -10 11 -24 -27z"/>
<path d="M1065 3760 c10 -11 23 -20 28 -20 6 0 2 9 -8 20 -10 11 -23 20 -28
20 -6 0 -2 -9 8 -20z"/>
<path d="M3162 3730 c0 -14 -3 -51 -7 -82 -7 -50 -6 -58 9 -58 12 0 16 10 16
43 0 23 3 60 6 82 4 27 3 36 -4 26 -8 -11 -10 -11 -15 0 -2 8 -5 3 -5 -11z"/>
<path d="M1030 2893 c-18 -94 -34 -156 -38 -145 -1 5 4 43 13 83 17 85 19 107
6 94 -34 -38 -62 -415 -40 -553 7 -42 11 -103 10 -134 -1 -36 4 -69 14 -87 8
-17 15 -39 15 -51 0 -11 4 -20 9 -20 6 0 9 -35 8 -78 -1 -56 2 -84 12 -96 11
-13 15 -55 16 -169 2 -152 12 -214 33 -210 14 3 20 -22 26 -112 3 -38 10 -101
15 -140 6 -38 14 -99 19 -135 15 -109 69 -224 179 -375 10 -13 23 -25 30 -25
7 0 17 -9 23 -20 6 -11 17 -20 24 -20 8 0 19 -13 26 -29 14 -35 56 -76 64 -63
3 5 1 36 -4 68 -11 68 -11 284 1 284 4 0 5 8 2 18 -5 20 29 156 52 205 15 32
15 31 9 -23 -4 -30 -13 -75 -21 -100 -19 -61 -31 -447 -14 -478 12 -23 104
-86 160 -109 36 -16 66 -46 77 -78 9 -28 102 -117 109 -105 3 5 1 27 -4 47 -6
21 -10 56 -10 78 1 36 2 34 15 -25 16 -73 41 -113 73 -118 19 -3 21 0 15 25
-4 15 -13 45 -21 67 -8 23 -14 88 -14 160 l-2 121 -7 -88 c-10 -127 -24 -122
-16 7 3 60 6 124 6 143 0 20 4 32 10 28 16 -10 12 90 -10 215 -23 134 -22 127
-11 114 5 -5 16 -47 25 -94 47 -252 47 -262 44 -460 -3 -172 -1 -199 15 -231
14 -29 24 -36 47 -37 29 -1 30 1 30 44 0 51 25 215 40 259 9 28 10 27 5 -10
-3 -22 -12 -76 -20 -120 -17 -93 -19 -164 -5 -185 19 -30 38 13 58 130 16 93
20 105 21 65 0 -27 -6 -81 -14 -118 -19 -90 -15 -97 50 -97 30 0 57 -4 60 -10
7 -12 75 -14 75 -2 0 4 11 12 25 19 21 9 25 9 25 -4 0 -10 6 -12 23 -8 36 11
64 46 81 100 8 28 15 41 15 30 0 -11 -6 -38 -14 -60 -16 -44 -15 -48 8 -39 18
6 50 98 65 184 l9 55 2 -60 2 -60 19 37 c11 20 42 55 69 78 49 41 49 42 61
128 16 107 7 243 -20 337 -23 79 -24 86 -10 65 47 -73 67 -321 35 -447 -9 -38
17 -27 67 29 l46 52 -5 75 c-5 85 -23 158 -60 245 -27 64 -64 237 -62 289 1
18 8 -4 15 -48 15 -87 47 -200 88 -308 18 -46 28 -99 33 -158 7 -98 12 -101
58 -29 13 19 37 51 55 70 37 41 96 164 112 233 8 33 16 46 27 45 18 -3 40 50
40 99 1 17 7 38 15 46 23 23 37 86 46 212 5 66 14 170 21 230 16 146 14 216
-9 262 -27 55 -65 261 -44 238 8 -9 46 -132 55 -180 2 -11 7 3 11 30 5 35 1
80 -14 153 -22 113 -26 212 -9 229 13 13 -25 43 -53 43 -22 0 -22 -3 -3 -40
25 -48 -7 -100 -61 -100 -47 0 -82 16 -128 57 -63 56 -56 60 26 14 81 -44 117
-50 142 -25 34 34 2 74 -60 74 l-39 1 28 15 c15 8 50 18 76 21 41 5 52 2 70
-16 18 -18 22 -19 27 -6 7 18 -3 159 -15 202 l-8 28 -16 -31 c-8 -17 -34 -47
-56 -67 -47 -42 -94 -49 -158 -22 -28 12 -62 15 -137 11 -100 -4 -100 -4 -110
-32 -5 -16 -16 -34 -25 -41 -14 -10 -12 -15 15 -40 16 -15 41 -41 55 -57 20
-24 21 -27 4 -17 -37 20 -72 56 -99 98 -30 49 -53 64 -108 69 -21 2 -48 9 -60
15 -35 19 -75 28 -84 19 -5 -5 -26 -5 -47 -1 -44 10 -49 -2 -9 -23 15 -8 47
-33 72 -56 45 -40 45 -41 13 -29 -30 10 -123 93 -123 109 0 16 -106 8 -149
-12 -40 -18 -50 -19 -96 -8 -27 7 -82 13 -120 14 -75 1 -89 -6 -154 -77 -14
-16 -35 -34 -46 -39 -20 -11 -20 -11 0 13 45 55 80 89 91 89 6 0 18 7 25 17
13 15 10 16 -32 11 -51 -6 -97 -40 -144 -108 -15 -21 -34 -41 -43 -45 -10 -3
-2 9 16 27 17 19 32 38 32 43 0 5 10 19 22 32 22 24 13 33 -11 11 -11 -10 -13
-10 -7 0 11 19 -6 14 -47 -14 -34 -23 -40 -24 -55 -11 -41 37 -142 46 -232 22
-141 -38 -222 0 -274 129 l-23 57 -18 -88 c-9 -49 -21 -95 -27 -103 -7 -11 -8
-8 -4 12 4 15 9 69 11 120 3 51 10 122 15 158 20 146 21 152 10 145 -5 -3 -10
-1 -10 4 0 6 -4 11 -9 11 -5 0 -15 -26 -21 -57z m2160 -380 c-11 -17 -11 -17
-6 0 3 10 6 24 7 30 0 9 2 9 5 0 3 -7 0 -20 -6 -30z m-1265 -29 c-22 -20 -53
-43 -70 -51 -36 -19 -29 -11 38 44 63 51 88 56 32 7z m95 12 c0 -9 -101 -68
-107 -63 -3 3 16 20 43 36 44 29 64 37 64 27z m340 -21 c13 -14 21 -25 18 -25
-2 0 -15 11 -28 25 -13 14 -21 25 -18 25 2 0 15 -11 28 -25z m-95 -35 c16 -16
24 -30 19 -30 -6 0 -23 14 -39 30 -16 17 -24 30 -19 30 6 0 23 -13 39 -30z
m341 -37 c18 -12 18 -12 -1 -6 -28 8 -85 52 -85 65 0 5 15 -3 33 -18 19 -16
42 -34 53 -41z m214 -43 c23 -27 39 -50 35 -50 -10 0 -115 102 -115 112 0 17
38 -12 80 -62z m-1688 32 c-11 -15 -25 -43 -30 -62 -10 -34 -10 -35 -11 -6 -1
30 34 96 50 96 6 0 1 -13 -9 -28z m313 -59 c-67 -79 -81 -94 -70 -73 24 44
116 153 123 146 2 -3 -22 -35 -53 -73z m770 57 c3 -5 1 -10 -4 -10 -6 0 -11 5
-11 10 0 6 2 10 4 10 3 0 8 -4 11 -10z m-115 -20 c-6 -11 -18 -20 -28 -20 -13
0 -12 4 8 20 31 25 33 25 20 0z m785 0 c3 -6 -1 -7 -9 -4 -18 7 -21 14 -7 14
6 0 13 -4 16 -10z m-691 -39 c-2 -3 -12 3 -22 13 -16 17 -16 18 5 5 12 -7 20
-15 17 -18z m702 -2 c25 -17 43 -33 40 -36 -5 -5 -96 54 -96 62 0 10 13 4 56
-26z m284 3 c0 -10 -6 -27 -14 -38 -13 -17 -13 -15 -3 19 13 41 17 46 17 19z
m-1140 -23 c12 -7 11 -8 -5 -8 -11 0 -31 6 -45 14 l-25 15 30 -6 c17 -4 37
-10 45 -15z m415 -5 c-25 -20 -98 -54 -104 -49 -15 16 64 64 104 64 l20 0 -20
-15z m-1263 -6 c-38 -38 8 -105 67 -96 l29 4 -42 -41 c-29 -28 -53 -66 -75
-120 -33 -79 -49 -108 -38 -70 3 11 11 38 16 61 6 22 24 61 41 85 35 53 36 56
9 64 -11 4 -27 21 -34 38 -11 27 -11 36 1 59 8 16 20 28 26 28 9 0 9 -3 0 -12z
m1438 -5 c-27 -4 -95 -19 -126 -28 -11 -3 -1 4 21 15 24 11 58 19 85 18 25 0
34 -2 20 -5z m-985 -13 c26 -6 22 -8 -23 -9 -33 -1 -51 3 -47 9 7 11 26 11 70
0z m1000 -40 c-3 -5 -12 -10 -18 -10 -7 0 -6 4 3 10 19 12 23 12 15 0z m110
-11 c-43 -20 -76 -25 -59 -10 9 9 70 29 89 29 6 0 -8 -8 -30 -19z m-1204 -10
c23 -11 39 -23 36 -25 -5 -6 -87 33 -87 41 0 9 10 6 51 -16z m1239 -13 c0 -2
-7 -7 -16 -10 -8 -3 -12 -2 -9 4 6 10 25 14 25 6z m150 -12 l25 -15 -25 5
c-14 3 -43 6 -65 6 -30 0 -36 3 -25 10 22 14 61 12 90 -6z m-1467 -16 c15 -6
27 -14 27 -19 0 -10 -88 20 -96 33 -7 11 17 6 69 -14z m1357 8 c0 -3 -4 -8
-10 -11 -5 -3 -10 -1 -10 4 0 6 5 11 10 11 6 0 10 -2 10 -4z m-1486 -50 c-10
-8 -21 -12 -24 -9 -3 2 4 11 14 19 11 7 22 12 25 9 2 -3 -4 -12 -15 -19z m136
-14 c0 -5 -11 -14 -24 -20 -27 -12 -66 -102 -66 -152 0 -16 -5 -32 -11 -35
-13 -8 -4 48 18 117 15 50 83 122 83 90z m1494 -22 c41 -50 43 -90 7 -164 -17
-36 -31 -73 -31 -84 0 -10 32 -81 70 -157 39 -76 70 -144 70 -152 0 -7 4 -13
9 -13 6 0 5 15 -1 36 -19 71 -1 43 22 -33 27 -88 37 -225 14 -176 -8 16 -31
78 -53 139 -22 61 -65 163 -96 225 -62 125 -63 143 -19 211 26 40 32 104 14
139 -20 36 -63 50 -142 44 -50 -3 -63 -2 -43 4 17 5 58 9 92 10 57 1 63 -1 87
-29z m-1448 -25 c-32 -30 -40 -57 -38 -140 0 -51 -1 -62 -7 -39 -4 17 -11 37
-16 44 -22 36 11 150 48 163 29 10 37 -6 13 -28z m58 -17 c-4 -18 -7 -60 -7
-93 1 -47 0 -54 -7 -30 -11 44 -11 114 0 136 16 29 22 23 14 -13z m85 16 c-8
-10 -19 -29 -26 -43 -6 -14 -12 -20 -12 -13 -1 20 28 72 40 72 7 0 6 -6 -2
-16z m1171 6 c8 -5 11 -10 5 -10 -5 0 -17 5 -25 10 -8 5 -10 10 -5 10 6 0 17
-5 25 -10z m-85 -18 c42 -35 100 -162 75 -162 -5 0 -10 7 -10 15 0 24 -37 90
-71 130 -32 37 -29 47 6 17z m-935 -37 c-28 -29 -39 -117 -22 -177 5 -19 7
-48 4 -64 -5 -24 -8 -18 -18 36 -22 115 -18 160 17 203 17 21 34 36 37 32 3
-3 -5 -16 -18 -30z m-86 -22 c-17 -56 -18 -105 -3 -173 7 -34 8 -55 1 -62 -10
-10 -28 148 -23 207 2 27 25 75 35 75 2 0 -2 -21 -10 -47z m824 25 c38 -42 53
-120 33 -173 -6 -14 -9 -6 -14 32 -6 56 -23 95 -56 129 -11 12 -17 25 -14 28
12 12 30 6 51 -16z m114 -33 c23 -22 49 -59 59 -81 23 -50 39 -247 28 -326 -4
-29 -9 -111 -10 -183 -2 -107 -3 -119 -9 -70 -4 33 -3 125 3 205 10 156 5 269
-14 346 -12 46 -72 119 -124 151 -19 12 -19 12 3 5 13 -4 41 -26 64 -47z
m-752 39 c0 -3 -9 -13 -20 -22 -12 -10 -27 -39 -35 -67 -12 -46 -13 -47 -14
-17 -1 35 11 65 37 95 15 17 32 23 32 11z m1244 -298 c20 -77 35 -141 32 -143
-7 -7 -44 92 -65 172 -12 44 -23 125 -26 180 l-4 100 13 -85 c8 -47 30 -148
50 -224z m-986 281 c20 -24 23 -64 8 -98 l-16 -34 5 39 c2 21 -2 54 -10 72
-14 34 -7 45 13 21z m140 1 c17 -17 14 -108 -4 -138 l-15 -25 7 30 c14 58 8
108 -16 127 -21 17 -21 18 -3 18 10 0 24 -5 31 -12z m447 -112 c8 -28 14 -83
14 -125 l-2 -76 -7 96 c-8 96 -19 131 -67 199 -24 34 -23 34 11 -4 21 -22 43
-62 51 -90z m-785 85 c-18 -35 -10 -47 10 -13 26 43 33 41 13 -5 -11 -27 -14
-54 -10 -93 4 -31 0 -83 -7 -118 -10 -50 -10 -60 0 -50 20 21 45 108 50 172 2
32 9 66 15 75 16 26 0 -137 -19 -184 -13 -33 -65 -115 -93 -149 -4 -5 0 11 8
35 20 56 30 216 14 232 -6 6 -11 19 -11 29 0 22 26 88 35 88 3 0 1 -9 -5 -19z
m-332 -86 c-1 -31 -16 35 -16 70 0 25 2 24 9 -10 4 -22 8 -49 7 -60z m598 -29
c-20 -40 -55 -84 -56 -69 0 6 5 15 11 19 19 11 48 87 51 129 l1 40 4 -44 c3
-26 -2 -55 -11 -75z m-1189 62 c-3 -7 -5 -2 -5 12 0 14 2 19 5 13 2 -7 2 -19
0 -25z m1040 -20 c-3 -7 -5 -2 -5 12 0 14 2 19 5 13 2 -7 2 -19 0 -25z m-252
-265 c-16 -28 -16 -28 -9 17 4 25 8 65 10 90 1 25 4 65 5 90 2 25 5 -3 6 -62
3 -84 0 -114 -12 -135z m242 205 c-3 -7 -5 -2 -5 12 0 14 2 19 5 13 2 -7 2
-19 0 -25z m-697 -20 c0 -5 -4 -8 -10 -8 -5 0 -10 10 -10 23 0 18 2 19 10 7 5
-8 10 -18 10 -22z m15 -158 c4 -27 3 -31 -5 -18 -6 10 -13 48 -15 85 -4 65 -4
66 5 18 5 -27 11 -66 15 -85z m899 95 c-14 -19 -31 -35 -37 -35 -6 0 4 16 23
35 19 19 36 35 37 35 2 0 -8 -16 -23 -35z m150 -75 c-57 -88 -87 -174 -100
-280 -5 -41 10 -197 21 -222 4 -11 3 -18 -3 -18 -22 0 -46 122 -43 215 3 112
53 249 123 338 49 62 51 42 2 -33z m-1331 23 c-10 -64 -24 -94 -17 -39 5 47
13 76 19 76 2 0 1 -17 -2 -37z m1093 -18 c-20 -15 -36 -19 -36 -10 0 5 38 23
50 24 3 0 -4 -6 -14 -14z m-6 -50 c0 -6 -56 -35 -67 -35 -9 0 48 38 60 39 4 1
7 -1 7 -4z m-1109 -76 c-5 -26 -9 -34 -10 -19 -1 27 9 73 15 67 2 -2 0 -23 -5
-48z m123 12 c-4 -17 -9 -30 -11 -27 -3 2 -2 19 2 36 9 41 17 33 9 -9z m52
-159 c-24 -255 -18 -424 20 -577 4 -16 3 -17 -5 -5 -29 47 -53 317 -40 465 13
159 33 321 37 302 2 -10 -4 -93 -12 -185z m830 138 c-14 -17 -26 -29 -26 -25
0 10 43 65 48 60 2 -2 -7 -18 -22 -35z m-902 -59 c-4 -17 -9 -30 -11 -27 -3 2
-2 19 2 36 9 41 17 33 9 -9z m731 -21 c-44 -163 20 -286 277 -536 113 -109
128 -129 173 -218 l50 -98 4 -118 c3 -111 1 -122 -24 -178 -15 -33 -38 -70
-51 -83 l-23 -22 9 33 c5 19 14 36 19 39 4 3 19 29 31 56 19 42 23 65 21 140
-4 180 -42 256 -231 450 -144 149 -213 233 -249 303 -31 61 -38 162 -17 236
22 73 30 69 11 -4z m136 1 c-28 -52 -3 -192 53 -298 38 -70 21 -68 -18 3 -47
84 -68 187 -55 262 11 60 20 81 26 65 2 -7 0 -21 -6 -32z m-886 -78 c-8 -75
-15 -107 -21 -100 -6 6 16 157 23 157 2 0 2 -26 -2 -57z m1472 -15 c-3 -8 -6
-5 -6 6 -1 11 2 17 5 13 3 -3 4 -12 1 -19z m3 -81 c0 -35 5 -89 11 -121 16
-86 5 -92 -14 -7 -19 81 -23 191 -7 191 6 0 10 -28 10 -63z m-903 -95 c6 -125
9 -113 -63 -306 -25 -67 -40 -247 -26 -325 6 -37 14 -76 17 -87 4 -11 0 -8 -9
6 -24 43 -39 148 -31 234 7 84 27 166 70 286 30 81 37 174 22 285 -6 46 -5 56
4 42 6 -10 13 -71 16 -135z m-320 31 c-3 -10 -5 -4 -5 12 0 17 2 24 5 18 2 -7
2 -21 0 -30z m1500 5 c-3 -8 -6 -5 -6 6 -1 11 2 17 5 13 3 -3 4 -12 1 -19z
m17 -73 c4 -25 18 -77 32 -117 28 -83 32 -128 4 -53 -10 28 -25 68 -33 90 -18
49 -30 138 -18 131 5 -3 12 -26 15 -51z m-35 -174 c12 -58 14 -98 5 -89 -9 10
-44 191 -43 228 1 36 3 29 38 -139z m-710 56 c-2 -3 -15 10 -28 27 l-24 31 28
-27 c16 -15 27 -29 24 -31z m770 -86 c1 -48 -5 -36 -13 24 -4 34 -3 43 3 30 5
-11 10 -35 10 -54z m-904 -15 c60 -107 67 -138 52 -231 l-14 -80 -1 70 c-1 69
-18 132 -71 263 -28 69 -11 58 34 -22z m196 37 c13 -16 12 -17 -3 -4 -17 13
-22 21 -14 21 2 0 10 -8 17 -17z m-920 -53 c-9 -23 -10 -23 -10 11 -1 20 2 39
7 43 11 12 14 -27 3 -54z m48 -52 c-1 -88 -3 -103 -9 -68 -7 41 -2 180 6 180
2 0 3 -51 3 -112z m1106 52 c14 -22 25 -43 25 -47 0 -9 -59 70 -60 80 0 16 11
5 35 -33z m512 -22 c-3 -7 -5 -2 -5 12 0 14 2 19 5 13 2 -7 2 -19 0 -25z
m-1372 -5 c-12 -31 -43 -196 -51 -268 -6 -61 -8 -66 -15 -40 -12 43 47 325 68
325 3 0 2 -8 -2 -17z m1294 -65 c-1 -55 -5 -50 -11 15 -2 20 0 37 4 37 4 0 7
-24 7 -52z m-358 -29 c11 -22 19 -44 17 -49 -2 -5 -14 15 -28 45 -29 61 -20
64 11 4z m-350 -164 c20 -58 24 -90 24 -190 0 -67 -5 -128 -11 -138 -7 -13 -9
14 -6 100 3 100 -1 133 -21 216 -28 111 -21 117 14 12z m-405 -47 c-9 -62 -18
-133 -19 -158 -2 -26 -4 -12 -5 32 -1 42 2 99 7 125 5 26 13 65 16 87 3 21 9
36 12 33 3 -4 -2 -57 -11 -119z m674 -3 c8 -52 2 -225 -9 -225 -3 0 -4 47 -3
105 2 57 -1 123 -6 147 -6 24 -13 54 -16 68 -4 17 -1 13 10 -10 9 -19 20 -57
24 -85z m128 50 l0 -30 -8 30 c-4 17 -8 39 -8 50 l-1 20 9 -20 c5 -11 8 -33 8
-50z m-521 -62 c-3 -10 -5 -2 -5 17 0 19 2 27 5 18 2 -10 2 -26 0 -35z m168
-313 c-9 -28 -19 -50 -21 -48 -2 2 4 27 13 56 9 28 19 50 21 47 2 -2 -4 -27
-13 -55z"/>
<path d="M1921 684 c0 -11 3 -14 6 -6 3 7 2 16 -1 19 -3 4 -6 -2 -5 -13z"/>
</g>
</svg>
